# AST/ASF file generated using VICON BodyLanguage
# -----------------------------------------------
:version 1.10
:name VICON
:units
  mass 1.0
  length 0.45
  angle deg
:documentation
   .ast/.asf automatically generated from VICON data using
   VICON BodyBuilder and BodyLanguage model FoxedUp or BRILLIANT.MOD
:root
   order TX TY TZ RX RY RZ
   axis XYZ
   position 0 0 0  
   orientation 0 0 0 
:bonedata
  begin
     id 1 
     name lhipjoint
     direction 0.677091 -0.635792 0.370561 
     length 2.74323 
     axis 0 0 0  XYZ
  end
  begin
     id 2 
     name lfemur
     direction 0.34202 -0.939693 0  
     length 7.44995  
     axis 0 0 20  XYZ
    dof rx ry rz
    limits (-160.0 20.0)
           (-70.0 70.0)
           (-60.0 70.0)
  end
  begin
     id 3 
     name ltibia
     direction 0.34202 -0.939693 0   
     length 7.34467   
     axis 0 0 20   XYZ
    dof rx
    limits (-10.0 170.0)
  end
  begin
     id 4 
     name lfoot
     direction 0.101953 -0.280114 0.954537   
     length 1.72105   
     axis -90 7.62852e-016 20   XYZ
    dof rx rz
    limits (-45.0 90.0)
           (-70.0 20.0)
  end
  begin
     id 5 
     name ltoes
     direction 1.53537e-011 -4.21915e-011 1   
     length 0.865872   
     axis -90 7.62852e-016 20   XYZ
    dof rx
    limits (-90.0 20.0)
  end
  begin
     id 6 
     name rhipjoint
     direction -0.695735 -0.620586 0.361699   
     length 2.81045  
     axis 0 0 0  XYZ 
  end
  begin
     id 7 
     name rfemur
     direction -0.34202 -0.939693 0   
     length 7.29387   
     axis 0 0 -20   XYZ
    dof rx ry rz
    limits (-160.0 20.0)
           (-70.0 70.0)
           (-70.0 60.0)
  end
  begin
     id 8 
     name rtibia
     direction -0.34202 -0.939693 0   
     length 7.44935   
     axis 0 0 -20   XYZ
    dof rx
    limits (-10.0 170.0)
 end
 begin
     id 9 
     name rfoot
     direction -0.104163 -0.286184 0.952496   
     length 1.77731  
     axis -90 -7.62852e-016 -20   XYZ
    dof rx rz
    limits (-45.0 90.0)
           (-20.0 70.0)
  end
  begin
     id 10 
     name rtoes
     direction -1.5355e-011 -4.21888e-011 1   
     length 0.892424   
     axis -90 -7.62852e-016 -20   XYZ
    dof rx
    limits (-90.0 20.0)
  end
  begin
     id 11 
     name lowerback
     direction 0.0100202 0.997226 -0.0737589   
     length 2.16892   
     axis 0 0 0   XYZ
    dof rx ry rz
    limits (-20.0 45.0)
           (-30.0 30.0)
           (-30.0 30.0)
  end
  begin
     id 12 
     name upperback
     direction 0.00432398 0.999988 -0.00215019   
     length 2.17326   
     axis 0 0 0   XYZ
    dof rx ry rz
    limits (-20.0 45.0)
           (-30.0 30.0)
           (-30.0 30.0)
  end
  begin
     id 13 
     name thorax
     direction -0.00195047 0.999485 0.0320434   
     length 2.18139   
     axis 0 0 0   XYZ
    dof rx ry rz
    limits (-20.0 45.0)
           (-30.0 30.0)
           (-30.0 30.0)
  end
  begin
     id 14 
     name lowerneck
     direction 0.00782762 0.986241 0.165128   
     length 1.88415   
     axis 0 0 0   XYZ
    dof rx ry rz
    limits (-20.0 45.0)
           (-30.0 30.0)
           (-30.0 30.0)
  end
  begin
     id 15 
     name upperneck
     direction 0.00988667 0.981098 -0.193258   
     length 1.9242   
     axis 0 0 0   XYZ
    dof rx ry rz
    limits (-20.0 45.0)
           (-30.0 30.0)
           (-30.0 30.0)
  end
  begin
     id 16
     name head
     direction 0.00252199 0.996513 -0.0833958  
     length 1.93887  
     axis 0 0 0   XYZ
    dof rx ry rz
    limits (-20.0 45.0)
           (-30.0 30.0)
           (-30.0 30.0)
  end
  begin
     id 17 
     name lclavicle
     direction 0.929492 0.368193 -0.0218667  
     length 3.5955  
     axis 0 0 0   XYZ
    dof ry rz
    limits (-20.0 10.0)
           (0.0 20.0)
  end
  begin
     id 18 
     name lhumerus
     direction 1 -4.48972e-011 1.41911e-027   
     length 5.2795   
     axis 180 -30 -90   XYZ
    dof rx ry rz
    limits (-60.0 90.0)
           (-90.0 90.0)
           (-90.0 90.0)
  end
  begin
     id 19
     name lradius
     direction 1 -4.48963e-011 7.05772e-027   
     length 3.53504   
     axis 180 -30 -90   XYZ
    dof rx
    limits (-10.0 170.0)
  end
  begin
     id 20
     name lwrist
     direction 1 -4.48957e-011 9.54866e-027   
     length 1.76752   
     axis -7.69462e-015 90 90   XYZ
    dof ry
    limits (-180.0 0.0)
 end
  begin
     id 21 
     name lhand
     direction 1 -4.48979e-011 1.90973e-026   
     length 0.667948   
     axis -1.21857e-014 90 90   XYZ
    dof rx rz
    limits (-90.0 90.0)
           (-45.0 45.0)
  end
  begin
     id 22 
     name lfingers
     direction 1 -4.48987e-011 3.81946e-026   
     length 0.538517   
     axis -2.43714e-014 90 90   XYZ
    dof rx
    limits (0.0 90.0)
  end
  begin
     id 23
     name lthumb
     direction 0.707107 -6.34962e-011 0.707107   
     length 0.773206   
     axis -90 45 2.85299e-015   XYZ
    dof rx rz
    limits (-45.0 45.0)
           (-45.0 45.0)
  end
  begin
     id 24 
     name rclavicle
     direction -0.898763 0.414256 -0.143584   
     length 3.5176  
     axis 0 0 0   XYZ 
    dof ry rz
    limits (-10.0 20.0)
           (-20.0 0.0)
  end
  begin
     id 25 
     name rhumerus
     direction -1 -4.48971e-011 1.129e-027  
     length 5.25035   
     axis 180 30 90   XYZ
    dof rx ry rz
    limits (-90.0 60.0)
           (-90.0 90.0)
           (-90.0 90.0)
  end
  begin
     id 26 
     name rradius
     direction -1 -4.48955e-011 6.34664e-027   
     length 3.58884   
     axis 180 30 90   XYZ
    dof rx
    limits (-10.0 170.0)
  end
  begin
     id 27 
     name rwrist
     direction -1 -4.48966e-011 9.54866e-027   
     length 1.79442   
     axis -7.69462e-015 -90 -90   XYZ
    dof ry
    limits (-180.0 0.0)
  end
  begin
     id 28
     name rhand
     direction -1 -4.48973e-011 1.90973e-026   
     length 0.779235   
     axis -1.21857e-014 -90 -90   XYZ
    dof rx rz
    limits (-90.0 90.0)
           (-45.0 45.0)
  end
  begin
     id 29
     name rfingers
     direction -1 -4.48984e-011 3.81946e-026   
     length 0.62824   
     axis -2.43714e-014 -90 -90   XYZ
    dof rx
    limits (0.0 90.0)
  end
  begin
     id 30
     name rthumb
     direction -0.707107 -6.34968e-011 0.707107   
     length 0.90203   
     axis -90 -45 -2.85299e-015   XYZ
    dof rx rz
    limits (-45.0 45.0)
           (-45.0 45.0)
  end
:hierarchy
  begin
    root lhipjoint rhipjoint lowerback
    lhipjoint lfemur
    lfemur ltibia
    ltibia lfoot
    lfoot ltoes
    rhipjoint rfemur
    rfemur rtibia
    rtibia rfoot
    rfoot rtoes
    lowerback upperback
    upperback thorax
    thorax lowerneck lclavicle rclavicle
    lowerneck upperneck
    upperneck head
    lclavicle lhumerus
    lhumerus lradius
    lradius lwrist
    lwrist lhand lthumb
    lhand lfingers
    rclavicle rhumerus
    rhumerus rradius
    rradius rwrist
    rwrist rhand rthumb
    rhand rfingers
  end

#!OML:ASF I:\Random Stuff\random\construction\7_22_03\Session 2\subj1.ASF
:FULLY-SPECIFIED
:DEGREES
72
root -21.0991 17.5248 -2.25906 -167.809 79.517 -174.519
lowerback 1.19222 0.745941 0.362425
upperback -2.5237 1.0615 0.987236
thorax -3.27234 0.545152 0.768067
lowerneck -24.2459 -0.577663 -0.621529
upperneck 31.9704 -0.475625 1.32052
head 15.2784 0.141632 0.628495
rclavicle 5.93869e-015 -2.5842e-015
rhumerus -38.4403 1.61665 -80.6191
rradius 31.9804
rwrist 2.59228
rhand -16.4117 18.7636
rfingers 7.12502
rthumb 9.80294 -10.9882
lclavicle 5.93869e-015 -2.5842e-015
lhumerus -34.8954 -6.07025 91.583
lradius 31.6692
lwrist 24.8255
lhand -19.8103 53.8328
lfingers 7.12502
lthumb 6.52297 83.7124
rfemur -9.31779 24.8652 20.753
rtibia 19.1934
rfoot -20.0919 -45.7109
rtoes 15.4216
lfemur -15.5999 -19.2972 -15.544
ltibia 25.5018
lfoot -15.4472 19.2336
ltoes -12.6969
73
root -21.0908 17.5227 -2.25422 -168.154 79.4918 -174.825
lowerback 1.24588 0.736201 0.317811
upperback -2.53716 1.04758 0.980343
thorax -3.31705 0.539207 0.785702
lowerneck -24.3017 -0.593364 -0.562093
upperneck 32.1117 -0.499432 1.27162
head 15.3569 0.135069 0.59525
rclavicle 2.12637e-014 -1.13307e-014
rhumerus -38.4648 1.50447 -80.5508
rradius 32.06
rwrist 2.61909
rhand -16.4093 18.5712
rfingers 7.12502
rthumb 9.80525 -11.1805
lclavicle 2.12637e-014 -1.13307e-014
lhumerus -34.9584 -6.24633 91.6358
lradius 31.7353
lwrist 24.8549
lhand -19.7932 53.5975
lfingers 7.12502
lthumb 6.53946 83.4766
rfemur -9.27756 25.1243 20.7418
rtibia 19.2716
rfoot -20.3664 -45.9245
rtoes 15.7824
lfemur -15.5112 -18.7682 -15.6415
ltibia 25.4493
lfoot -13.473 18.5855
ltoes -15.7294
74
root -21.0817 17.5213 -2.24857 -168.55 79.441 -175.169
lowerback 1.3241 0.719291 0.286373
upperback -2.54103 1.02402 0.96677
thorax -3.36525 0.527879 0.789266
lowerneck -24.2227 -0.477207 -0.658543
upperneck 32.2091 -0.356223 1.49382
head 15.384 0.220763 0.736467
rclavicle -1.1368e-015 -5.96354e-015
rhumerus -38.4744 1.33843 -80.4756
rradius 32.1012
rwrist 2.68915
rhand -16.4059 18.4685
rfingers 7.12502
rthumb 9.80858 -11.2831
lclavicle -1.1368e-015 -5.96354e-015
lhumerus -34.9525 -6.37396 91.6621
lradius 31.723
lwrist 24.8863
lhand -19.8505 53.6345
lfingers 7.12502
lthumb 6.48413 83.5153
rfemur -9.20108 25.1981 20.756
rtibia 19.3134
rfoot -20.1888 -46.1562
rtoes 15.3347
lfemur -15.417 -18.3009 -15.7441
ltibia 25.4207
lfoot -13.4728 18.153
ltoes -16.4594
75
root -21.073 17.52 -2.24201 -168.676 79.3872 -175.258
lowerback 1.3748 0.692269 0.293878
upperback -2.54325 0.989268 0.986859
thorax -3.39601 0.510643 0.806528
lowerneck -24.1938 -0.439677 -0.672063
upperneck 32.293 -0.279236 1.4719
head 15.4157 0.250589 0.746522
rclavicle 2.61837e-014 3.97569e-016
rhumerus -38.4493 1.20116 -80.3813
rradius 32.0857
rwrist 2.73213
rhand -16.3872 18.558
rfingers 7.12502
rthumb 9.82665 -11.1927
lclavicle 2.61837e-014 3.97569e-016
lhumerus -34.8726 -6.26665 91.6328
lradius 31.5889
lwrist 24.7257
lhand -19.7099 53.6443
lfingers 7.12502
lthumb 6.61987 83.5208
rfemur -9.13717 25.0614 20.8238
rtibia 19.3436
rfoot -19.9207 -46.1877
rtoes 14.7564
lfemur -15.3509 -18.0213 -15.7608
ltibia 25.389
lfoot -15.1754 18.0035
ltoes -14.8498
76
root -21.0655 17.5195 -2.237 -168.475 79.3482 -175.062
lowerback 1.37127 0.640581 0.388718
upperback -2.55509 0.924359 1.00652
thorax -3.4043 0.476319 0.776386
lowerneck -24.1459 -0.394901 -0.524447
upperneck 32.3354 -0.201542 1.28233
head 15.423 0.27451 0.656969
rclavicle -2.19471e-014 -3.77691e-015
rhumerus -38.4048 1.11959 -80.3552
rradius 32.0599
rwrist 2.85158
rhand -16.3173 18.6265
rfingers 7.12502
rthumb 9.89408 -11.121
lclavicle -2.19471e-014 -3.77691e-015
lhumerus -34.7848 -6.05093 91.5228
lradius 31.4641
lwrist 24.614
lhand -19.6358 53.5163
lfingers 7.12502
lthumb 6.69137 83.3906
rfemur -9.12909 24.6156 20.8956
rtibia 19.3512
rfoot -19.7962 -45.7843
rtoes 14.4488
lfemur -15.3377 -17.8782 -15.6979
ltibia 25.3617
lfoot -15.0833 17.8467
ltoes -14.5958
77
root -21.0563 17.5218 -2.23346 -168.133 79.3229 -174.761
lowerback 1.32657 0.622407 0.549868
upperback -2.58589 0.905483 0.995918
thorax -3.40802 0.462957 0.676356
lowerneck -24.1695 -0.36496 -0.409596
upperneck 32.5082 -0.167943 1.20939
head 15.5092 0.296684 0.616141
rclavicle 1.02623e-014 5.36719e-015
rhumerus -38.4422 0.992525 -80.3587
rradius 32.0811
rwrist 3.00913
rhand -16.1457 18.5672
rfingers 7.12502
rthumb 10.0596 -11.1724
lclavicle 1.02623e-014 5.36719e-015
lhumerus -34.7053 -5.96718 91.4107
lradius 31.3633
lwrist 24.5617
lhand -19.5487 53.3567
lfingers 7.12502
lthumb 6.77544 83.2283
rfemur -9.1473 23.9961 20.9604
rtibia 19.2908
rfoot -19.3539 -45.274
rtoes 13.699
lfemur -15.3719 -17.6958 -15.6149
ltibia 25.3727
lfoot -15.0472 17.7281
ltoes -14.3376
78
root -21.0446 17.5243 -2.22773 -167.933 79.2957 -174.581
lowerback 1.30064 0.632718 0.656855
upperback -2.61692 0.923838 1.00442
thorax -3.42413 0.469833 0.624497
lowerneck -24.2153 -0.3464 -0.426936
upperneck 32.8045 -0.129105 1.25487
head 15.6602 0.32572 0.652039
rclavicle 1.6729e-014 -3.37934e-015
rhumerus -38.5837 0.852485 -80.2881
rradius 32.1429
rwrist 3.11328
rhand -15.949 18.629
rfingers 7.12502
rthumb 10.2493 -11.1012
lclavicle 1.6729e-014 -3.37934e-015
lhumerus -34.6451 -5.98425 91.4278
lradius 31.2906
lwrist 24.6096
lhand -19.6131 53.5541
lfingers 7.12502
lthumb 6.71328 83.4277
rfemur -9.11908 23.9517 21.0285
rtibia 19.2241
rfoot -19.0654 -45.3309
rtoes 13.4347
lfemur -15.3623 -17.4585 -15.5615
ltibia 25.3825
lfoot -15.0875 17.5346
ltoes -13.8747
79
root -21.0332 17.5256 -2.22085 -167.896 79.3059 -174.55
lowerback 1.28971 0.642219 0.701532
upperback -2.64262 0.939685 1.02804
thorax -3.44438 0.477239 0.623062
lowerneck -24.1749 -0.303002 -0.507769
upperneck 33.0309 -0.0573271 1.3817
head 15.759 0.37177 0.73947
rclavicle -1.5586e-014 6.16232e-015
rhumerus -38.6944 0.827042 -80.2112
rradius 32.155
rwrist 3.12307
rhand -15.7532 18.8674
rfingers 7.12502
rthumb 10.4382 -10.8535
lclavicle -1.5586e-014 6.16232e-015
lhumerus -34.6162 -6.03579 91.5242
lradius 31.2385
lwrist 24.6006
lhand -19.8043 53.834
lfingers 7.12502
lthumb 6.52872 83.7133
rfemur -9.07809 24.017 21.087
rtibia 19.2488
rfoot -19.1746 -45.3614
rtoes 13.7111
lfemur -15.3027 -17.3958 -15.5301
ltibia 25.3402
lfoot -15.1647 17.4477
ltoes -12.85
80
root -21.023 17.5283 -2.21532 -168.33 79.3826 -175.019
lowerback 1.27124 0.671093 0.658437
upperback -2.67541 0.976981 1.00762
thorax -3.46841 0.496855 0.624631
lowerneck -24.1287 -0.273046 -0.691262
upperneck 33.2215 -0.049578 1.73577
head 15.8407 0.411709 0.92934
rclavicle 3.68497e-014 1.31198e-014
rhumerus -38.7389 0.834419 -80.1783
rradius 32.0813
rwrist 3.13032
rhand -15.5787 19.1536
rfingers 7.12502
rthumb 10.6066 -10.5588
lclavicle 3.68497e-014 1.31198e-014
lhumerus -34.6592 -6.21468 91.6193
lradius 31.2591
lwrist 24.4875
lhand -19.8404 53.7559
lfingers 7.12502
lthumb 6.49393 83.6364
rfemur -9.1206 23.7536 21.0282
rtibia 19.3525
rfoot -18.999 -45.1158
rtoes 13.1094
lfemur -15.2486 -17.4282 -15.6051
ltibia 25.2558
lfoot -15.1105 17.426
ltoes -12.0792
81
root -21.0144 17.5295 -2.21137 -169.216 79.5 -175.958
lowerback 1.25984 0.685664 0.529461
upperback -2.71008 0.991497 0.961973
thorax -3.49919 0.506907 0.649236
lowerneck -24.2386 -0.213384 -0.318516
upperneck 33.5574 0.0631314 1.30366
head 16.0276 0.449388 0.709087
rclavicle 2.64384e-014 -3.97569e-016
rhumerus -38.7015 0.790717 -80.161
rradius 31.913
rwrist 3.21486
rhand -15.9226 19.084
rfingers 7.12502
rthumb 10.2748 -10.645
lclavicle 2.64384e-014 -3.97569e-016
lhumerus -34.7238 -6.32725 91.6637
lradius 31.3381
lwrist 24.4872
lhand -19.8074 53.7043
lfingers 7.12502
lthumb 6.52574 83.5837
rfemur -9.24358 23.749 20.822
rtibia 19.4935
rfoot -19.014 -45.0749
rtoes 12.795
lfemur -15.1902 -17.5428 -15.7895
ltibia 25.1453
lfoot -14.9048 17.5644
ltoes -12.0773
82
root -21.0074 17.5279 -2.20824 -169.771 79.6172 -176.555
lowerback 1.24667 0.688887 0.478786
upperback -2.73293 0.994066 0.943766
thorax -3.51592 0.5094 0.658806
lowerneck -24.1946 -0.084279 -0.105418
upperneck 33.8299 0.256905 1.12668
head 16.1494 0.539356 0.64095
rclavicle -3.25075e-014 1.05356e-014
rhumerus -38.5727 0.711957 -80.1054
rradius 31.6932
rwrist 3.3663
rhand -15.9942 19.2261
rfingers 7.12502
rthumb 10.2057 -10.5064
lclavicle -3.25075e-014 1.05356e-014
lhumerus -34.698 -6.23039 91.679
lradius 31.3397
lwrist 24.4575
lhand -19.8512 53.8927
lfingers 7.12502
lthumb 6.48347 83.7734
rfemur -9.37983 23.6397 20.6685
rtibia 19.6665
rfoot -19.215 -44.8767
rtoes 12.9497
lfemur -15.1149 -17.731 -15.9119
ltibia 25.0063
lfoot -14.6319 17.8997
ltoes -12.4705
